<?xml version="1.0" encoding="UTF-8"?>
<svg version="1.1" xmlns="http://www.w3.org/2000/svg" width="500" height="500">
<path d="M0 0 C165 0 330 0 500 0 C500 165 500 330 500 500 C335 500 170 500 0 500 C0 335 0 170 0 0 Z " fill="#000000" transform="translate(0,0)"/>
<path d="M0 0 C6.50126981 3.88346709 12.52751392 8.33799785 18.4375 13.0625 C19.10523438 13.57554688 19.77296875 14.08859375 20.4609375 14.6171875 C29.90585407 22.18166819 37.5988624 32.91983082 39.4375 45.0625 C39.50121368 46.66553627 39.52394214 48.27087672 39.5 49.875 C39.49097656 50.66519531 39.48195313 51.45539063 39.47265625 52.26953125 C39.46105469 52.86121094 39.44945312 53.45289063 39.4375 54.0625 C36.16250401 49.15000601 34.51217036 43.57675542 32.4375 38.0625 C32.4375 44.3325 32.4375 50.6025 32.4375 57.0625 C26.09265584 55.91690314 20.40557541 54.49393813 14.4375 52.0625 C14.38851562 51.18207031 14.33953125 50.30164063 14.2890625 49.39453125 C14.17691406 47.65236328 14.17691406 47.65236328 14.0625 45.875 C13.99289062 44.72644531 13.92328125 43.57789063 13.8515625 42.39453125 C13.46240426 39.26290883 12.7565149 36.90964191 11.4375 34.0625 C11.14875 35.25875 10.86 36.455 10.5625 37.6875 C9.6850666 41.20976836 8.63729363 44.63451821 7.4375 48.0625 C1.9925 47.5675 1.9925 47.5675 -3.5625 47.0625 C-4.0575 41.1225 -4.0575 41.1225 -4.5625 35.0625 C-5.2225 38.6925 -5.8825 42.3225 -6.5625 46.0625 C-13.4375 45.1875 -13.4375 45.1875 -14.5625 44.0625 C-14.78821184 42.65129098 -14.95638349 41.23073957 -15.09765625 39.80859375 C-15.22817383 38.52758789 -15.22817383 38.52758789 -15.36132812 37.22070312 C-15.4918457 35.87395508 -15.4918457 35.87395508 -15.625 34.5 C-15.71587891 33.59830078 -15.80675781 32.69660156 -15.90039062 31.76757812 C-16.12503629 29.53294491 -16.34426996 27.29776887 -16.5625 25.0625 C-17.5525 31.0025 -18.5425 36.9425 -19.5625 43.0625 C-27.27734375 43.16015625 -27.27734375 43.16015625 -29.5625 43.0625 C-31.50340826 41.12159174 -30.96169435 37.58956098 -31.125 35 C-31.20878906 33.70964844 -31.29257813 32.41929687 -31.37890625 31.08984375 C-31.43949219 30.09082031 -31.50007813 29.09179688 -31.5625 28.0625 C-32.86508843 30.07696815 -34.1543692 32.09818613 -35.4375 34.125 C-35.80230469 34.68638672 -36.16710937 35.24777344 -36.54296875 35.82617188 C-40.02681156 41.36864908 -41.45983518 47.09860487 -42.6875 53.5 C-42.85507813 54.36496094 -43.02265625 55.22992188 -43.1953125 56.12109375 C-43.31648438 56.76175781 -43.43765625 57.40242188 -43.5625 58.0625 C-48.3838855 51.99307193 -49.15302901 44.51470298 -50.5625 37.0625 C-53.01855371 39.61524874 -53.55052939 40.92140643 -53.85546875 44.515625 C-53.80326172 46.39507812 -53.80326172 46.39507812 -53.75 48.3125 C-53.72292969 49.57578125 -53.69585937 50.8390625 -53.66796875 52.140625 C-53.61576172 53.58695313 -53.61576172 53.58695313 -53.5625 55.0625 C-52.2425 55.7225 -50.9225 56.3825 -49.5625 57.0625 C-48.3693836 71.14790191 -53.66805626 89.01182748 -62.5625 100.0625 C-64.4952192 101.85205481 -66.4740043 103.44866242 -68.5625 105.0625 C-69.2225 104.7325 -69.8825 104.4025 -70.5625 104.0625 C-70.30855469 103.29873047 -70.05460938 102.53496094 -69.79296875 101.74804688 C-65.84161111 88.61385247 -64.86809856 75.16698085 -63.5625 61.5625 C-59.49998327 19.230628 -59.49998327 19.230628 -50.5625 10.0625 C-44.97613799 5.61500968 -39.16582593 3.3972415 -32.2734375 1.78515625 C-29.56180961 1.06231596 -27.22832965 0.05496458 -24.6875 -1.125 C-16.09332175 -4.60068662 -8.22942247 -4.23283691 0 0 Z " fill="#7A6204" transform="translate(246.5625,102.9375)"/>
<path d="M0 0 C0.66 0 1.32 0 2 0 C3.41475185 2.2044517 4.71700485 4.40778646 6 6.6875 C13.30870429 19.17301759 20.77369766 28.85837836 33 37 C35.67060132 38.78588747 38.33806052 40.57622196 41 42.375 C41.67949707 42.83374512 42.35899414 43.29249023 43.05908203 43.76513672 C48.61994762 47.58848203 53.54201283 51.85964966 58.40625 56.5234375 C60.54820497 58.5686174 62.72544335 60.48264344 65 62.375 C72.45852052 68.85049376 82.76433537 78.00703717 87 87 C86.96036641 90.21692605 85.8627769 91.13744336 83.56640625 93.4375 C82.07947266 94.7059375 82.07947266 94.7059375 80.5625 96 C75.93425004 99.8642255 75.93425004 99.8642255 73 105 C72.01 105 71.02 105 70 105 C67.44569911 106.50856073 64.97591811 108.05966423 62.5 109.6875 C44.88823171 120.93285205 44.88823171 120.93285205 35 120 C33.52782828 113.76049773 32.4783091 107.60739167 31.6875 101.25 C29.40445272 83.91564099 27.02762163 66.38043746 22.375 49.5 C22.18115723 48.79520508 21.98731445 48.09041016 21.78759766 47.36425781 C20.12578826 41.72170432 18.67206923 38.24144839 13.890625 34.69140625 C7.12380783 31.60981133 -0.97906082 32.70611055 -8.25 32.9375 C-10.58030371 33.00568403 -12.90999808 33.06756059 -15.24090576 33.11073303 C-16.68369081 33.13787108 -18.12629844 33.17938006 -19.56817627 33.23728943 C-22.61994837 33.29853803 -24.73117863 33.13698632 -27.47167969 31.74047852 C-29 30 -29 30 -29 26 C-28.32195312 25.81566406 -27.64390625 25.63132813 -26.9453125 25.44140625 C-14.41809095 21.53749372 -7.77734363 13.58938727 -1.59375 2.52734375 C-1.0678125 1.69332031 -0.541875 0.85929688 0 0 Z " fill="#7B6305" transform="translate(260,172)"/>
<path d="M0 0 C2.31 0 4.62 0 7 0 C7 3.96 7 7.92 7 12 C11.95 12 16.9 12 22 12 C22 8.04 22 4.08 22 0 C24.31 0 26.62 0 29 0 C29 10.89 29 21.78 29 33 C27.02 33 25.04 33 23 33 C23 28.05 23 23.1 23 18 C17.72 18 12.44 18 7 18 C7 22.95 7 27.9 7 33 C4.69 33 2.38 33 0 33 C0 22.11 0 11.22 0 0 Z " fill="#745D00" transform="translate(129,298)"/>
<path d="M0 0 C1.98 0 3.96 0 6 0 C6.01981934 0.59014893 6.03963867 1.18029785 6.06005859 1.78833008 C6.15534659 4.46350096 6.26500939 7.13789498 6.375 9.8125 C6.4059375 10.74126953 6.436875 11.67003906 6.46875 12.62695312 C6.50742187 13.51962891 6.54609375 14.41230469 6.5859375 15.33203125 C6.6173584 16.15421143 6.6487793 16.9763916 6.68115234 17.82348633 C6.88373622 20.28952937 6.88373622 20.28952937 9 23 C10.97747122 23.36297936 10.97747122 23.36297936 13.125 23.1875 C14.40375 23.125625 15.6825 23.06375 17 23 C18.20270964 20.59458071 18.20316663 18.89633409 18.31640625 16.2109375 C18.35830078 15.26992188 18.40019531 14.32890625 18.44335938 13.359375 C18.48267578 12.37453125 18.52199219 11.3896875 18.5625 10.375 C18.60568359 9.38242187 18.64886719 8.38984375 18.69335938 7.3671875 C18.79961069 4.91160162 18.90164964 2.45591297 19 0 C21.31 0 23.62 0 26 0 C26.1171893 3.35386761 26.18757584 6.70720149 26.25 10.0625 C26.30027344 11.47692383 26.30027344 11.47692383 26.3515625 12.91992188 C26.43883631 19.1818178 25.82770102 22.9610859 22 28 C17.72220963 31.15804156 12.0636636 30.73625969 7 30 C3.10211378 27.21579556 1.35281385 24.52924462 0 20 C-0.23805887 16.55829617 -0.18835083 13.13524712 -0.125 9.6875 C-0.11597656 8.75615234 -0.10695313 7.82480469 -0.09765625 6.86523438 C-0.07418263 4.5765564 -0.04134729 2.28841328 0 0 Z " fill="#715B00" transform="translate(258,303)"/>
<path d="M0 0 C0.66 0 1.32 0 2 0 C2.30292969 0.99902344 2.60585938 1.99804688 2.91796875 3.02734375 C3.34004373 4.33108648 3.76328163 5.63445312 4.1875 6.9375 C4.38408203 7.59685547 4.58066406 8.25621094 4.78320312 8.93554688 C5.45446521 11.09946651 5.45446521 11.09946651 7 14 C9.475 14.495 9.475 14.495 12 15 C12.33 10.71 12.66 6.42 13 2 C11.68 1.34 10.36 0.68 9 0 C11.703125 -0.30859375 11.703125 -0.30859375 15 0 C17.484375 2.15234375 17.484375 2.15234375 19.75 4.9375 C22.4653137 8.47761797 22.4653137 8.47761797 26 11 C26 7.7 26 4.4 26 1 C25.34 0.67 24.68 0.34 24 0 C25.65 0 27.3 0 29 0 C28.67 0.66 28.34 1.32 28 2 C27.76827173 4.54615009 27.58105471 7.07396225 27.4375 9.625 C27.37272461 10.68460937 27.37272461 10.68460937 27.30664062 11.765625 C27.20055249 13.51018537 27.09977111 15.25506697 27 17 C23.11985064 15.47940093 21.26093438 13.13921469 18.75 9.875 C18.04359375 8.96492188 17.3371875 8.05484375 16.609375 7.1171875 C16.07828125 6.41851562 15.5471875 5.71984375 15 5 C14.91868537 6.43655854 14.86066441 7.8744483 14.8125 9.3125 C14.77769531 10.11300781 14.74289062 10.91351563 14.70703125 11.73828125 C14.82206226 14.43247515 14.82206226 14.43247515 18 17 C12.72 17 7.44 17 2 17 C2.33 15.02 2.66 13.04 3 11 C1.35 11.33 -0.3 11.66 -2 12 C-1.67 13.65 -1.34 15.3 -1 17 C-3.31 17 -5.62 17 -8 17 C-7.54625 16.443125 -7.0925 15.88625 -6.625 15.3125 C-4.96266232 12.94686561 -3.97855457 10.70984342 -3 8 C-2.67 8.66 -2.34 9.32 -2 10 C-0.68 10 0.64 10 2 10 C1.67 8.02 1.34 6.04 1 4 C0.34 4 -0.32 4 -1 4 C-0.67 2.68 -0.34 1.36 0 0 Z " fill="#D7D7D7" transform="translate(331,311)"/>
<path d="M0 0 C1.62463842 -0.05395478 3.24978541 -0.09277195 4.875 -0.125 C5.77992188 -0.14820313 6.68484375 -0.17140625 7.6171875 -0.1953125 C10 0 10 0 12 2 C12 4 12 6 12 8 C12.99 9.485 12.99 9.485 14 11 C13.75 13.625 13.75 13.625 13 16 C10.35541621 17.32229189 8.32238699 17.09677194 5.375 17.0625 C4.37210938 17.05347656 3.36921875 17.04445313 2.3359375 17.03515625 C1.56507813 17.02355469 0.79421875 17.01195312 0 17 C0.66 16.67 1.32 16.34 2 16 C2 11.38 2 6.76 2 2 C1.34 2 0.68 2 0 2 C0 1.34 0 0.68 0 0 Z " fill="#D8D8D8" transform="translate(215,311)"/>
<path d="M0 0 C1.79133978 -0.05391993 3.58313899 -0.09275571 5.375 -0.125 C6.37273437 -0.14820313 7.37046875 -0.17140625 8.3984375 -0.1953125 C11 0 11 0 13 2 C13.23779528 5.0913386 12.98965019 7.03104944 12 10 C12.97229848 11.8948204 12.97229848 11.8948204 14.4375 13.6875 C14.91058594 14.31011719 15.38367188 14.93273437 15.87109375 15.57421875 C16.24363281 16.04472656 16.61617188 16.51523437 17 17 C14.33230578 16.84756033 12.55665291 16.55349011 10.625 14.6328125 C9.39651749 13.10452176 8.19710019 11.55299484 7 10 C6.34 9.67 5.68 9.34 5 9 C5 11.31 5 13.62 5 16 C5.99 16.33 6.98 16.66 8 17 C5.36 17 2.72 17 0 17 C0.33 16.34 0.66 15.68 1 15 C1.23029956 12.62876754 1.41119942 10.25258057 1.5625 7.875 C1.64628906 6.59367187 1.73007812 5.31234375 1.81640625 3.9921875 C1.90728516 2.51105469 1.90728516 2.51105469 2 1 C1.34 0.67 0.68 0.34 0 0 Z " fill="#D3D3D3" transform="translate(290,311)"/>
<path d="M0 0 C1.79133978 -0.05391993 3.58313899 -0.09275571 5.375 -0.125 C6.37273437 -0.14820313 7.37046875 -0.17140625 8.3984375 -0.1953125 C11 0 11 0 13 2 C13.23779528 5.0913386 12.98965019 7.03104944 12 10 C12.97229848 11.8948204 12.97229848 11.8948204 14.4375 13.6875 C14.91058594 14.31011719 15.38367188 14.93273437 15.87109375 15.57421875 C16.24363281 16.04472656 16.61617187 16.51523437 17 17 C14.33230578 16.84756033 12.55665291 16.55349011 10.625 14.6328125 C9.39651749 13.10452176 8.19710019 11.55299484 7 10 C6.34 9.67 5.68 9.34 5 9 C5 11.31 5 13.62 5 16 C5.99 16.33 6.98 16.66 8 17 C5.36 17 2.72 17 0 17 C0.33 16.34 0.66 15.68 1 15 C1.23029956 12.62876754 1.41119942 10.25258057 1.5625 7.875 C1.64628906 6.59367187 1.73007813 5.31234375 1.81640625 3.9921875 C1.90728516 2.51105469 1.90728516 2.51105469 2 1 C1.34 0.67 0.68 0.34 0 0 Z " fill="#D3D3D3" transform="translate(191,311)"/>
<path d="M0 0 C0.99 0.33 1.98 0.66 3 1 C4.16796875 3.94140625 4.16796875 3.94140625 5.1875 7.5625 C5.53167969 8.76003906 5.87585938 9.95757812 6.23046875 11.19140625 C6.48441406 12.11824219 6.73835937 13.04507812 7 14 C8.65 14.33 10.3 14.66 12 15 C12.33 10.71 12.66 6.42 13 2 C12.34 1.67 11.68 1.34 11 1 C13.64 0.67 16.28 0.34 19 0 C18.67 0.66 18.34 1.32 18 2 C17.34 2 16.68 2 16 2 C16 6.29 16 10.58 16 15 C16.99 15 17.98 15 19 15 C19 15.66 19 16.32 19 17 C13.39 17 7.78 17 2 17 C2.66 16.67 3.32 16.34 4 16 C3.67 14.68 3.34 13.36 3 12 C1.02 12 -0.96 12 -3 12 C-2.14285714 3.42857143 -2.14285714 3.42857143 0 0 Z " fill="#E1E1E1" transform="translate(170,311)"/>
<path d="M0 0 C0.99 0 1.98 0 3 0 C3 2.31 3 4.62 3 7 C4.32 6.67 5.64 6.34 7 6 C7 4.02 7 2.04 7 0 C8.32 0.33 9.64 0.66 11 1 C10.773125 1.928125 10.54625 2.85625 10.3125 3.8125 C10.1578125 5.3903125 10.1578125 5.3903125 10 7 C11.45833358 8.62514468 11.45833358 8.62514468 13 10 C12.875 12.0625 12.875 12.0625 12 14 C8.68629 16.20914 7.6553979 16.22481553 3.8125 16.125 C2.91144531 16.10695313 2.01039063 16.08890625 1.08203125 16.0703125 C0.39496094 16.04710937 -0.29210937 16.02390625 -1 16 C-0.34 15.67 0.32 15.34 1 15 C0.67 10.05 0.34 5.1 0 0 Z " fill="#D0D0D0" transform="translate(310,312)"/>
<path d="M0 0 C2.31 0 4.62 0 7 0 C7.33 2.31 7.66 4.62 8 7 C9.32 5.35 10.64 3.7 12 2 C11.34 2 10.68 2 10 2 C10 1.34 10 0.68 10 0 C12.31 0 14.62 0 17 0 C17 0.66 17 1.32 17 2 C16.01 2.33 15.02 2.66 14 3 C10.89227695 6.93035563 9.4749981 10.01251998 9 15 C10.32 15.33 11.64 15.66 13 16 C13 16.33 13 16.66 13 17 C9.7 17 6.4 17 3 17 C3.33 16.34 3.66 15.68 4 15 C4.66 15 5.32 15 6 15 C5.68817931 13.58318366 5.37551263 12.16655349 5.0625 10.75 C4.88847656 9.96109375 4.71445313 9.1721875 4.53515625 8.359375 C4.35855469 7.58078125 4.18195313 6.8021875 4 6 C3.87496094 5.26265625 3.74992188 4.5253125 3.62109375 3.765625 C3.41613281 3.18296875 3.21117187 2.6003125 3 2 C2.01 1.67 1.02 1.34 0 1 C0 0.67 0 0.34 0 0 Z " fill="#D8D8D8" transform="translate(230,311)"/>
<path d="M0 0 C0.66 0 1.32 0 2 0 C6 4.47058824 6 4.47058824 6 7 C6.99 7.33 7.98 7.66 9 8 C10.70415177 10.1353227 12.27064388 12.25276501 13.8125 14.5 C14.25754883 15.13711914 14.70259766 15.77423828 15.16113281 16.43066406 C16.44951271 18.28124609 17.7265305 20.13913681 19 22 C19.58652344 22.85078125 20.17304688 23.7015625 20.77734375 24.578125 C22.21633434 26.70034984 23.61838983 28.8400179 25 31 C25.57105469 31.89074219 26.14210938 32.78148437 26.73046875 33.69921875 C27.29378906 34.60285156 27.85710937 35.50648438 28.4375 36.4375 C28.95183594 37.26121094 29.46617187 38.08492188 29.99609375 38.93359375 C30.32738281 39.61550781 30.65867187 40.29742187 31 41 C30.67 41.66 30.34 42.32 30 43 C28.86968397 41.27430361 27.74596893 39.54428261 26.625 37.8125 C25.99851562 36.84957031 25.37203125 35.88664062 24.7265625 34.89453125 C23.18011688 32.30196064 22.02491925 29.83146884 21 27 C20.34 27 19.68 27 19 27 C17.95547504 25.48041413 16.99175725 23.90518785 16.0625 22.3125 C12.71095686 16.84941382 8.88076967 12.11029719 4.64477539 7.3293457 C2.49405302 4.88030099 1.04318873 3.12956619 0 0 Z " fill="#D9D3B7" transform="translate(299,226)"/>
<path d="M0 0 C2.475 0.495 2.475 0.495 5 1 C5.3403125 2.7634375 5.3403125 2.7634375 5.6875 4.5625 C6.83007609 9.24122399 9.03040737 12.24893562 12 16 C9.33230578 15.84756033 7.55665291 15.55349011 5.625 13.6328125 C4.39651749 12.10452176 3.19710019 10.55299484 2 9 C1.34 8.67 0.68 8.34 0 8 C0 5.36 0 2.72 0 0 Z " fill="#E5E5E5" transform="translate(295,312)"/>
<path d="M0 0 C2.475 0.495 2.475 0.495 5 1 C5.3403125 2.7634375 5.3403125 2.7634375 5.6875 4.5625 C6.83007609 9.24122399 9.03040737 12.24893562 12 16 C9.33230578 15.84756033 7.55665291 15.55349011 5.625 13.6328125 C4.39651749 12.10452176 3.19710019 10.55299484 2 9 C1.34 8.67 0.68 8.34 0 8 C0 5.36 0 2.72 0 0 Z " fill="#E5E5E5" transform="translate(196,312)"/>
<path d="M0 0 C0.66 0 1.32 0 2 0 C4.03684712 4.07369424 4.0257259 6.58937864 3 11 C1.35 11.33 -0.3 11.66 -2 12 C-1.67 13.65 -1.34 15.3 -1 17 C-3.31 17 -5.62 17 -8 17 C-7.54625 16.443125 -7.0925 15.88625 -6.625 15.3125 C-4.96266232 12.94686561 -3.97855457 10.70984342 -3 8 C-2.67 8.66 -2.34 9.32 -2 10 C-0.68 10 0.64 10 2 10 C1.67 8.02 1.34 6.04 1 4 C0.34 4 -0.32 4 -1 4 C-0.67 2.68 -0.34 1.36 0 0 Z " fill="#E5E5E5" transform="translate(331,311)"/>
<path d="M0 0 C0.99 0.33 1.98 0.66 3 1 C3 1.66 3 2.32 3 3 C3.66 3 4.32 3 5 3 C5.33 2.01 5.66 1.02 6 0 C8.5625 2.1875 8.5625 2.1875 11 5 C10.8125 7.8125 10.8125 7.8125 10 10 C9.38125 9.360625 8.7625 8.72125 8.125 8.0625 C6.17402388 5.96116416 6.17402388 5.96116416 4 5 C4 5.66 4 6.32 4 7 C3.01 7 2.02 7 1 7 C0.67 4.69 0.34 2.38 0 0 Z " fill="#C5BB90" transform="translate(255,116)"/>
<path d="M0 0 C0.99 0.33 1.98 0.66 3 1 C3.73046875 2.84765625 3.73046875 2.84765625 4.1875 5.0625 C4.34605469 5.79597656 4.50460938 6.52945312 4.66796875 7.28515625 C4.83232422 8.13400391 4.83232422 8.13400391 5 9 C-0.75 10.125 -0.75 10.125 -3 9 C-2.01 6.03 -1.02 3.06 0 0 Z " fill="#CACACA" transform="translate(170,311)"/>
<path d="M0 0 C3.3 0 6.6 0 10 0 C10 2.31 10 4.62 10 7 C8.35 7.33 6.7 7.66 5 8 C5 5.69 5 3.38 5 1 C3.35 1.33 1.7 1.66 0 2 C0 1.34 0 0.68 0 0 Z " fill="#909090" transform="translate(308,311)"/>
<path d="M0 0 C1.79133978 -0.05391993 3.58313899 -0.09275571 5.375 -0.125 C6.37273437 -0.14820313 7.37046875 -0.17140625 8.3984375 -0.1953125 C11 0 11 0 13 2 C13.125 4.625 13.125 4.625 13 7 C12.01 7.33 11.02 7.66 10 8 C10 6.02 10 4.04 10 2 C8.35 1.67 6.7 1.34 5 1 C5 3.31 5 5.62 5 8 C4.67 8 4.34 8 4 8 C3.566875 6.576875 3.566875 6.576875 3.125 5.125 C2.23174891 1.94788422 2.23174891 1.94788422 0 0 Z " fill="#E5E5E5" transform="translate(290,311)"/>
<path d="M0 0 C1.79133978 -0.05391993 3.58313899 -0.09275571 5.375 -0.125 C6.37273437 -0.14820313 7.37046875 -0.17140625 8.3984375 -0.1953125 C11 0 11 0 13 2 C13.125 4.625 13.125 4.625 13 7 C12.01 7.33 11.02 7.66 10 8 C10 6.02 10 4.04 10 2 C8.35 1.67 6.7 1.34 5 1 C5 3.31 5 5.62 5 8 C4.67 8 4.34 8 4 8 C3.566875 6.576875 3.566875 6.576875 3.125 5.125 C2.23174891 1.94788422 2.23174891 1.94788422 0 0 Z " fill="#E5E5E5" transform="translate(191,311)"/>
<path d="M0 0 C0.99 0 1.98 0 3 0 C3.06058594 0.98742187 3.12117188 1.97484375 3.18359375 2.9921875 C3.26738281 4.27351563 3.35117187 5.55484375 3.4375 6.875 C3.51871094 8.15117187 3.59992188 9.42734375 3.68359375 10.7421875 C3.79206027 13.88300152 3.79206027 13.88300152 5 16 C3.02 16 1.04 16 -1 16 C-0.34 15.67 0.32 15.34 1 15 C0.67 10.05 0.34 5.1 0 0 Z " fill="#FAFAFA" transform="translate(310,312)"/>
<path d="M0 0 C1.66611905 -0.042721 3.33382885 -0.04063832 5 0 C6 1 6 1 6.0625 3.5625 C6.041875 4.366875 6.02125 5.17125 6 6 C4.34385343 6.38218767 2.67542976 6.71395102 1 7 C0 6 0 6 -0.0625 2.9375 C-0.041875 1.968125 -0.02125 0.99875 0 0 Z " fill="#171717" transform="translate(313,320)"/>
<path d="M0 0 C1.65 0 3.3 0 5 0 C5.625 2.375 5.625 2.375 6 5 C5.34 5.66 4.68 6.32 4 7 C1.875 6.625 1.875 6.625 0 6 C0 4.02 0 2.04 0 0 Z " fill="#0A0A0A" transform="translate(220,320)"/>
<path d="M0 0 C0.33 0 0.66 0 1 0 C1.33 2.31 1.66 4.62 2 7 C2.33 7 2.66 7 3 7 C3.103125 7.94875 3.20625 8.8975 3.3125 9.875 C3.68539295 13.29107501 3.68539295 13.29107501 7 15 C4.03 15 1.06 15 -2 15 C-1.34 14.67 -0.68 14.34 0 14 C0 9.38 0 4.76 0 0 Z " fill="#CACACA" transform="translate(217,313)"/>
<path d="M0 0 C2.475 0.495 2.475 0.495 5 1 C5 2.65 5 4.3 5 6 C3.35 6.33 1.7 6.66 0 7 C0 4.69 0 2.38 0 0 Z " fill="#0E0E0E" transform="translate(295,312)"/>
<path d="M0 0 C2.475 0.495 2.475 0.495 5 1 C5 2.65 5 4.3 5 6 C3.35 6.33 1.7 6.66 0 7 C0 4.69 0 2.38 0 0 Z " fill="#0E0E0E" transform="translate(196,312)"/>
<path d="M0 0 C3 2 3 2 3.6875 5.125 C3.790625 6.07375 3.89375 7.0225 4 8 C3.01 8 2.02 8 1 8 C0.67 6.68 0.34 5.36 0 4 C-1.98 4 -3.96 4 -6 4 C-6 3.01 -6 2.02 -6 1 C-3.03 1.495 -3.03 1.495 0 2 C0 1.34 0 0.68 0 0 Z " fill="#EFEFEF" transform="translate(173,319)"/>
<path d="M0 0 C2.475 0.495 2.475 0.495 5 1 C4.67 2.32 4.34 3.64 4 5 C2.68 5.33 1.36 5.66 0 6 C0 4.02 0 2.04 0 0 Z " fill="#121212" transform="translate(220,313)"/>
<path d="M0 0 C0.33 0 0.66 0 1 0 C1.95261487 4.76307437 2.08333357 9.1666528 2 14 C1.34 14 0.68 14 0 14 C-0.33 14.66 -0.66 15.32 -1 16 C-0.67 10.72 -0.34 5.44 0 0 Z " fill="#1F1900" transform="translate(241,132)"/>
<path d="M0 0 C2.31 0 4.62 0 7 0 C7 0.66 7 1.32 7 2 C6.01 2.33 5.02 2.66 4 3 C2.30117552 5.49759982 2.30117552 5.49759982 1 8 C0.34 7.67 -0.32 7.34 -1 7 C-0.01 5.35 0.98 3.7 2 2 C1.34 2 0.68 2 0 2 C0 1.34 0 0.68 0 0 Z " fill="#C7C7C7" transform="translate(240,311)"/>
<path d="M0 0 C2.31 0 4.62 0 7 0 C7.125 2.875 7.125 2.875 7 6 C6.34 6.66 5.68 7.32 5 8 C4.731875 7.030625 4.46375 6.06125 4.1875 5.0625 C3.795625 4.051875 3.40375 3.04125 3 2 C2.01 1.67 1.02 1.34 0 1 C0 0.67 0 0.34 0 0 Z " fill="#DEDEDE" transform="translate(230,311)"/>
<path d="M0 0 C3.16115776 1.36983503 3.9927092 1.9890638 6 5 C5.625 7.6875 5.625 7.6875 5 10 C2.35534962 6.8745041 1.15585285 3.91211733 0 0 Z " fill="#E9E6D6" transform="translate(260,116)"/>
<path d="M0 0 C0.99 0.33 1.98 0.66 3 1 C3.33 2.98 3.66 4.96 4 7 C2.68 7 1.36 7 0 7 C-1.04449911 3.86650268 -0.93423645 3.01031744 0 0 Z " fill="#616161" transform="translate(329,314)"/>
<path d="M0 0 C0.33 0.66 0.66 1.32 1 2 C3.02463255 2.65213292 3.02463255 2.65213292 5 3 C4.67 3.66 4.34 4.32 4 5 C1.4375 5.625 1.4375 5.625 -1 6 C-0.67 4.02 -0.34 2.04 0 0 Z " fill="#6A6A6A" transform="translate(170,315)"/>
<path d="M0 0 C1.32 0.33 2.64 0.66 4 1 C1.6875 3.5 1.6875 3.5 -1 6 C-1.99 6 -2.98 6 -4 6 C-4 5.34 -4 4.68 -4 4 C-3.34 4 -2.68 4 -2 4 C-1.34 2.68 -0.68 1.36 0 0 Z " fill="#E2DCC7" transform="translate(217,112)"/>
<path d="M0 0 C1.98 0.99 1.98 0.99 4 2 C4 3.32 4 4.64 4 6 C2.68 6 1.36 6 0 6 C0 4.02 0 2.04 0 0 Z " fill="#080808" transform="translate(314,312)"/>
<path d="M0 0 C2.35953094 2.35953094 2.49141413 3.77895617 3 7 C0.69 7 -1.62 7 -4 7 C-3.525625 6.401875 -3.05125 5.80375 -2.5625 5.1875 C-0.83534256 2.99617076 -0.83534256 2.99617076 0 0 Z " fill="#DCDCDC" transform="translate(327,321)"/>
<path d="M0 0 C2.97 0 5.94 0 9 0 C7.68 0.33 6.36 0.66 5 1 C5 3.31 5 5.62 5 8 C4.67 8 4.34 8 4 8 C3.566875 6.576875 3.566875 6.576875 3.125 5.125 C2.23174891 1.94788422 2.23174891 1.94788422 0 0 Z " fill="#EEEEEE" transform="translate(290,311)"/>
<path d="M0 0 C2.97 0 5.94 0 9 0 C7.68 0.33 6.36 0.66 5 1 C5 3.31 5 5.62 5 8 C4.67 8 4.34 8 4 8 C3.566875 6.576875 3.566875 6.576875 3.125 5.125 C2.23174891 1.94788422 2.23174891 1.94788422 0 0 Z " fill="#EEEEEE" transform="translate(191,311)"/>
<path d="M0 0 C1.32 0.33 2.64 0.66 4 1 C3.67 2.65 3.34 4.3 3 6 C2.34 6 1.68 6 1 6 C0.67 4.02 0.34 2.04 0 0 Z " fill="#E0E0E0" transform="translate(317,312)"/>
</svg>
